<svg width="31" height="31" viewBox="0 0 31 31" fill="none" xmlns="http://www.w3.org/2000/svg">
<path d="M12.5137 14.5229V9.63556C12.5137 8.01602 13.85 6.70312 15.4985 6.70312C17.147 6.70312 18.4833 8.01602 18.4833 9.63556V14.491M13.9066 24.2977H17.0904C19.3193 24.2977 20.4337 24.2977 21.285 23.8715C22.0338 23.4967 22.6426 22.8986 23.0242 22.1629C23.458 21.3265 23.458 20.2316 23.458 18.0419V15.6959C23.458 14.601 23.458 14.0536 23.2411 13.6354C23.0504 13.2676 22.7459 12.9685 22.3715 12.7811C21.9459 12.568 21.3886 12.568 20.2742 12.568H10.7228C9.60842 12.568 9.0512 12.568 8.62555 12.7811C8.25113 12.9685 7.94672 13.2676 7.75595 13.6354C7.53906 14.0536 7.53906 14.601 7.53906 15.6959V18.0419C7.53906 20.2316 7.53906 21.3265 7.97282 22.1629C8.35438 22.8986 8.9632 23.4967 9.71203 23.8715C10.5633 24.2977 11.6778 24.2977 13.9066 24.2977Z" stroke="white" stroke-linecap="round" stroke-linejoin="round"/>
</svg>
