<svg width="106" height="571" viewBox="0 0 106 571" fill="none" xmlns="http://www.w3.org/2000/svg">
<path d="M0.140623 104.083L0.140625 143.859L105.855 143.859L105.855 104.083L78.6731 104.083L61.4457 81.343L105.855 46.5269L105.855 0.422099L39.5323 52.4179L0.140619 0.422104L0.140621 49.5404L41.4615 104.083L0.140623 104.083Z" fill="#191919"/>
<path d="M105.855 256.36L105.855 296.137L0.140625 296.137L0.140621 208.554C0.14062 179.456 23.8056 155.866 52.9978 155.866C82.1899 155.866 105.855 179.456 105.855 208.554L105.855 256.36ZM78.6731 256.36L78.6731 221.236C78.6731 207.101 67.1779 195.643 52.9978 195.643C38.8177 195.643 27.3224 207.101 27.3224 221.236L27.3224 256.36L78.6731 256.36Z" fill="#191919"/>
<path d="M78.6731 379.422L78.6731 308.153L105.855 308.153L105.855 432.305L78.6731 432.305L27.3224 361.036L27.3224 432.305L0.140625 432.305L0.14062 308.153L27.3224 308.153L78.6731 379.422Z" fill="#191919"/>
<path d="M105.855 530.497L105.855 570.273L0.140625 570.273L0.140621 477.303C0.14062 456.587 16.9878 439.794 37.7698 439.794C58.5519 439.794 75.3991 456.587 75.3991 477.303L75.3991 530.497L105.855 530.497ZM48.2173 530.497L48.2173 489.985C48.2173 484.233 43.5398 479.571 37.7698 479.571C31.9998 479.571 27.3224 484.233 27.3224 489.985L27.3224 530.497L48.2173 530.497Z" fill="#191919"/>
</svg>
