<svg width="29" height="24" viewBox="0 0 29 24" fill="none" xmlns="http://www.w3.org/2000/svg">
<g clip-path="url(#clip0_2001_1664)">
<path d="M2.65501 10.5811C2.65501 10.5811 14.5967 5.75159 18.7382 4.0511C20.3258 3.37091 25.7099 1.19417 25.7099 1.19417C25.7099 1.19417 28.1948 0.242042 27.9877 2.55456C27.9186 3.50687 27.3664 6.83987 26.8142 10.445C25.9859 15.5466 25.0885 21.1242 25.0885 21.1242C25.0885 21.1242 24.9506 22.6887 23.7772 22.9608C22.6036 23.2329 20.6709 22.0085 20.3258 21.7364C20.0497 21.5323 15.1489 18.4714 13.3543 16.975C12.871 16.5669 12.3188 15.7506 13.4233 14.7983C15.9082 12.5537 18.8763 9.76479 20.6709 7.99631C21.4992 7.17997 22.3276 5.27535 18.8763 7.58805C13.9755 10.921 9.14358 14.0501 9.14358 14.0501C9.14358 14.0501 8.03932 14.7303 5.96853 14.1181C3.89774 13.5059 1.48179 12.6897 1.48179 12.6897C1.48179 12.6897 -0.174698 11.6692 2.65537 10.5811H2.65501Z" stroke="white"/>
</g>
<defs>
<clipPath id="clip0_2001_1664">
<rect width="29" height="24" fill="white"/>
</clipPath>
</defs>
</svg>
