<svg width="25" height="20" viewBox="0 0 25 20" fill="none" xmlns="http://www.w3.org/2000/svg">
<path d="M4.5 18C4.5 18.2761 4.72386 18.5 5 18.5L9.5 18.5C9.77614 18.5 10 18.2761 10 18C10 17.7239 9.77614 17.5 9.5 17.5L5.5 17.5L5.5 13.5C5.5 13.2239 5.27614 13 5 13C4.72386 13 4.5 13.2239 4.5 13.5L4.5 18ZM17.5 6C17.5 5.72386 17.2761 5.5 17 5.5L12.5 5.5C12.2239 5.5 12 5.72386 12 6C12 6.27614 12.2239 6.5 12.5 6.5L16.5 6.5L16.5 10.5C16.5 10.7761 16.7239 11 17 11C17.2761 11 17.5 10.7761 17.5 10.5L17.5 6ZM5 18L5.35355 18.3536L17.3536 6.35355L17 6L16.6464 5.64645L4.64645 17.6464L5 18Z" fill="#DEDEDE"/>
</svg>
