<svg width="26" height="29" viewBox="0 0 26 29" fill="none" xmlns="http://www.w3.org/2000/svg">
<path fill-rule="evenodd" clip-rule="evenodd" d="M10.6936 6H14.8064C16.6442 5.99998 18.0998 5.99997 19.239 6.15314C20.4114 6.31076 21.3604 6.64288 22.1088 7.39124C22.8571 8.13961 23.1892 9.08856 23.3469 10.261C23.5 11.4002 23.5 12.8558 23.5 14.6936V14.8064C23.5 16.6442 23.5 18.0998 23.3469 19.239C23.1892 20.4114 22.8571 21.3604 22.1088 22.1088C21.3604 22.8571 20.4114 23.1892 19.239 23.3469C18.0998 23.5 16.6442 23.5 14.8064 23.5H10.6936C8.85583 23.5 7.40019 23.5 6.26098 23.3469C5.08856 23.1892 4.13961 22.8571 3.39124 22.1088C2.64288 21.3604 2.31076 20.4114 2.15314 19.239C1.99997 18.0998 1.99998 16.6442 2 14.8064V14.6936C1.99998 12.8558 1.99997 11.4002 2.15314 10.261C2.31076 9.08856 2.64288 8.13961 3.39124 7.39124C4.13961 6.64288 5.08856 6.31076 6.26098 6.15314C7.40019 5.99997 8.85582 5.99998 10.6936 6ZM6.46085 7.63976C5.45476 7.77502 4.87511 8.02869 4.4519 8.4519C4.02869 8.87511 3.77502 9.45476 3.63976 10.4608C3.50159 11.4885 3.5 12.8432 3.5 14.75C3.5 16.6568 3.50159 18.0115 3.63976 19.0392C3.77502 20.0452 4.02869 20.6249 4.4519 21.0481C4.87511 21.4713 5.45476 21.725 6.46085 21.8602C7.48851 21.9984 8.84318 22 10.75 22H14.75C16.6568 22 18.0115 21.9984 19.0392 21.8602C20.0452 21.725 20.6249 21.4713 21.0481 21.0481C21.4713 20.6249 21.725 20.0452 21.8602 19.0392C21.9984 18.0115 22 16.6568 22 14.75C22 12.8432 21.9984 11.4885 21.8602 10.4608C21.725 9.45476 21.4713 8.87511 21.0481 8.4519C20.6249 8.02869 20.0452 7.77502 19.0392 7.63976C18.0115 7.50159 16.6568 7.5 14.75 7.5H10.75C8.84318 7.5 7.48851 7.50159 6.46085 7.63976ZM6.17383 10.2699C6.43901 9.95165 6.91193 9.90866 7.23014 10.1738L9.38903 11.9729C10.322 12.7504 10.9697 13.2884 11.5166 13.6401C12.0459 13.9806 12.4049 14.0949 12.75 14.0949C13.0951 14.0949 13.4541 13.9806 13.9834 13.6401C14.5303 13.2884 15.178 12.7504 16.111 11.9729L18.2699 10.1738C18.5881 9.90866 19.061 9.95165 19.3262 10.2699C19.5913 10.5881 19.5483 11.061 19.2301 11.3262L17.0336 13.1566C16.1473 13.8952 15.4289 14.4939 14.7948 14.9017C14.1343 15.3265 13.4911 15.5949 12.75 15.5949C12.0089 15.5949 11.3657 15.3265 10.7052 14.9017C10.0711 14.4939 9.35272 13.8952 8.46636 13.1566L6.26986 11.3262C5.95165 11.061 5.90866 10.5881 6.17383 10.2699Z" fill="#676767"/>
</svg>
