<svg width="26" height="29" viewBox="0 0 26 29" fill="none" xmlns="http://www.w3.org/2000/svg">
<path fill-rule="evenodd" clip-rule="evenodd" d="M5.48268 6.79349C6.70002 5.58307 8.70439 5.79853 9.7237 7.16011L10.9847 8.84451C11.8141 9.9524 11.7409 11.5008 10.7564 12.4797L10.5176 12.7171C10.5072 12.7474 10.4819 12.8426 10.51 13.0236C10.5732 13.4311 10.9135 14.2955 12.342 15.7159C13.77 17.1358 14.6405 17.4758 15.0538 17.5391C15.2411 17.5679 15.3391 17.5411 15.3694 17.5305L15.7774 17.1248C16.6526 16.2546 17.9975 16.0919 19.0811 16.681L20.9916 17.7196C22.6275 18.6089 23.0409 20.8326 21.7005 22.1653L20.28 23.5778C19.8324 24.0228 19.2305 24.3939 18.4959 24.4624C16.6869 24.631 12.4687 24.4158 8.03659 20.0089C3.89868 15.8945 3.10462 12.3065 3.00415 10.5387L3.75294 10.4961L3.00415 10.5387C2.95335 9.64475 3.37576 8.88845 3.91308 8.35418L5.48268 6.79349ZM8.52291 8.05905C8.01628 7.38231 7.072 7.3285 6.54032 7.85717L4.97072 9.41786C4.6408 9.7459 4.48206 10.1074 4.50173 10.4536C4.58156 11.8582 5.22286 15.0958 9.09423 18.9452C13.1557 22.9836 16.9069 23.104 18.3567 22.9689C18.6529 22.9413 18.9475 22.7874 19.2224 22.5141L20.6429 21.1016C21.2204 20.5275 21.093 19.482 20.2752 19.0374L18.3647 17.9988C17.8371 17.7121 17.219 17.8067 16.835 18.1885L16.3796 18.6414L15.8508 18.1095C16.3796 18.6414 16.3789 18.6421 16.3782 18.6428L16.3767 18.6442L16.3736 18.6472L16.3671 18.6535L16.3525 18.6671C16.342 18.6767 16.3299 18.6872 16.3164 18.6984C16.2892 18.7209 16.2558 18.7464 16.2159 18.7732C16.1358 18.8268 16.0301 18.8851 15.8972 18.9346C15.6264 19.0355 15.2692 19.0897 14.8264 19.0218C13.9596 18.8888 12.8114 18.2979 11.2844 16.7796C9.75787 15.2618 9.16194 14.1188 9.0277 13.2535C8.95906 12.8111 9.01381 12.4538 9.11594 12.1827C9.16599 12.0499 9.22497 11.9443 9.2791 11.8644C9.3061 11.8245 9.33179 11.7912 9.35446 11.7642C9.3658 11.7506 9.3764 11.7387 9.38604 11.7282L9.39977 11.7136L9.40606 11.7071L9.40905 11.7041L9.41051 11.7027C9.41122 11.7019 9.41194 11.7012 9.94076 12.2331L9.41194 11.7012L9.69875 11.416C10.1274 10.9899 10.1874 10.2824 9.7839 9.74346L8.52291 8.05905Z" fill="#676767"/>
</svg>
