<svg width="33" height="35" viewBox="0 0 33 35" fill="none" xmlns="http://www.w3.org/2000/svg">
<path d="M16.4997 34.44C15.9651 34.4448 15.4396 34.2925 14.9817 34L9.25852 30.45C7.11598 29.1792 5.32772 27.331 4.07447 25.0922C2.82122 22.8534 2.14739 20.3035 2.12109 17.7V8C2.12135 7.34635 2.31033 6.70845 2.66263 6.17212C3.01492 5.63579 3.51363 5.22674 4.09167 5L15.4625 0.570004C16.1322 0.309999 16.8671 0.309999 17.5368 0.570004L28.9077 5C29.4857 5.22674 29.9844 5.63579 30.3367 6.17212C30.689 6.70845 30.878 7.34635 30.8782 8V17.7C30.8519 20.3035 30.1781 22.8534 28.9249 25.0922C27.6716 27.331 25.8833 29.1792 23.7408 30.45L18.0177 34C17.5597 34.2925 17.0343 34.4448 16.4997 34.44ZM16.4997 2.88C16.4249 2.86556 16.3482 2.86556 16.2734 2.88L4.90252 7.33C4.77444 7.38031 4.66454 7.47209 4.58838 7.59235C4.51223 7.7126 4.4737 7.85522 4.47824 8V17.7C4.50558 19.8663 5.07191 21.9865 6.11993 23.8461C7.16796 25.7057 8.66049 27.2387 10.4465 28.29L16.1697 31.85C16.2709 31.9086 16.3843 31.9394 16.4997 31.9394C16.615 31.9394 16.7285 31.9086 16.8297 31.85L22.5528 28.29C24.3388 27.2387 25.8314 25.7057 26.8794 23.8461C27.9274 21.9865 28.4938 19.8663 28.5211 17.7V8C28.5217 7.85861 28.4813 7.72043 28.4054 7.60417C28.3295 7.48791 28.2218 7.39919 28.0968 7.35L16.726 2.92C16.6535 2.89213 16.5768 2.87858 16.4997 2.88Z" fill="#505050"/>
<path d="M15.462 22.3516C15.1837 22.3497 14.9144 22.2474 14.6983 22.0616L10.6723 18.4616C10.4322 18.2481 10.2819 17.9422 10.2545 17.6112C10.2271 17.2802 10.3248 16.9512 10.5261 16.6966C10.7274 16.442 11.0158 16.2827 11.3279 16.2536C11.64 16.2245 11.9502 16.3281 12.1903 16.5416L15.3488 19.3616L20.742 13.0616C20.952 12.815 21.2459 12.6669 21.5588 12.6501C21.8718 12.6332 22.1783 12.7489 22.4108 12.9716C22.6434 13.1944 22.783 13.5061 22.7989 13.838C22.8148 14.1699 22.7057 14.495 22.4957 14.7416L16.386 21.9416C16.269 22.0767 16.1258 22.1832 15.9663 22.254C15.8068 22.3248 15.6348 22.3581 15.462 22.3516Z" fill="#505050"/>
</svg>
