<svg width="25" height="20" viewBox="0 0 25 20" fill="none" xmlns="http://www.w3.org/2000/svg">
<g clip-path="url(#clip0_315_5667)">
<path d="M0.480023 17.6623L4.78598 5.66226C4.92853 5.26499 5.30516 5 5.72722 5H16.2727C16.6947 5 17.0714 5.26499 17.2139 5.66225L21.52 17.6622C21.7537 18.3137 21.2709 19 20.5787 19H1.42126C0.729097 19 0.246249 18.3137 0.480023 17.6623Z" stroke="#DEDEDE"/>
<circle cx="11.5" cy="2.5" r="2" stroke="#DEDEDE"/>
<path d="M10.48 14L8.956 11.93L9.442 11.63L11.164 14H10.48ZM7.654 14V9.8H8.242V14H7.654ZM8.062 12.152V11.624H9.424V12.152H8.062ZM9.496 11.966L8.944 11.882L10.45 9.8H11.092L9.496 11.966ZM11.779 14V9.8H14.533L14.527 10.322H12.223L12.367 10.172L12.373 14H11.779Z" fill="#DEDEDE"/>
</g>
<defs>
<clipPath id="clip0_315_5667">
<rect width="25" height="20" fill="white"/>
</clipPath>
</defs>
</svg>
