<svg width="741" height="268" viewBox="0 0 741 268" fill="none" xmlns="http://www.w3.org/2000/svg">
<path d="M64.16 2.5C82.7333 2.5 95.66 5.81333 102.94 12.44C110.22 18.9733 113.86 28.2133 113.86 40.16C113.86 48.3733 112.413 55.3733 109.52 61.16C106.627 66.8533 101.54 71.3333 94.26 74.6C86.98 77.7733 76.9467 79.36 64.16 79.36L35.04 79.36V104H0.6C1.34667 85.8933 1.72 68.9533 1.72 53.18C1.72 37.4067 1.34667 20.4667 0.6 2.36L35.04 2.36V2.5L64.16 2.5ZM54.36 52.34C62.1067 52.34 67.8933 52.06 71.72 51.5C75.64 50.8467 78.3467 49.7267 79.84 48.14C81.4267 46.5533 82.22 44.22 82.22 41.14C82.22 38.06 81.4733 35.7733 79.98 34.28C78.58 32.6933 75.92 31.62 72 31.06C68.1733 30.5 62.2933 30.22 54.36 30.22L35.04 30.22V52.34L54.36 52.34ZM169.814 0.819993C187.361 0.819993 201.221 2.96666 211.394 7.25999C221.567 11.46 228.661 17.34 232.674 24.9C236.781 32.3667 238.834 41.56 238.834 52.48C238.834 62.84 236.501 71.8933 231.834 79.64C227.167 87.3867 220.167 93.4067 210.834 97.7C201.501 101.9 190.021 104 176.394 104C168.087 104 159.641 104 151.054 104C142.467 104 133.787 103.953 125.014 103.86C125.761 85.4733 126.134 68.3467 126.134 52.48C126.134 36.4267 125.761 19.6733 125.014 2.21999C136.121 1.28666 151.054 0.819993 169.814 0.819993ZM180.314 76.14C188.994 76.14 194.781 74.04 197.674 69.84C200.567 65.64 202.014 59.8533 202.014 52.48C202.014 45.3867 200.474 39.6467 197.394 35.26C194.407 30.8733 188.714 28.68 180.314 28.68C171.261 28.68 164.494 28.96 160.014 29.52L160.014 76.14H180.314ZM296.455 76.42C301.775 76.3267 315.495 75.9533 337.615 75.3C340.415 75.2067 343.682 75.0667 347.415 74.88C351.148 74.6933 355.302 74.5533 359.875 74.46C359.222 78.8467 358.802 83.2333 358.615 87.62C358.522 92.0067 358.475 97.4667 358.475 104L251.095 104V72.78C256.228 69.8867 261.828 66.34 267.895 62.14C273.962 57.8467 281.802 52.2467 291.415 45.34C300.375 38.8067 306.862 34.14 310.875 31.34C303.502 31.4333 288.708 31.9467 266.495 32.88C258.842 33.2533 253.708 33.4867 251.095 33.58C251.095 26.6733 251.002 20.8867 250.815 16.22C250.722 11.5533 250.442 6.93333 249.975 2.36L358.475 2.36V33.72C353.528 36.9867 344.382 43.3333 331.035 52.76C316.102 63.4 304.575 71.2867 296.455 76.42ZM444.188 104C439.801 96.0667 432.521 83.9333 422.348 67.6L405.968 83.84V104H371.108C371.854 85.8933 372.228 68.9533 372.228 53.18C372.228 37.4067 371.854 20.4667 371.108 2.36H405.968V43.38C423.141 26.3933 435.368 12.72 442.648 2.36L488.008 2.36L443.908 46.04C450.441 55.1867 457.768 65.1267 465.888 75.86C474.101 86.5933 481.521 95.9733 488.148 104H444.188ZM84.682 253.96C87.8554 249.2 90.4687 244.767 92.522 240.66C94.6687 236.553 96.722 231.793 98.682 226.38C105.309 230.207 113.009 233.193 121.782 235.34C130.555 237.487 138.722 238.56 146.282 238.56C154.029 238.56 159.489 237.907 162.662 236.6C165.835 235.2 167.422 233.707 167.422 232.12C167.422 226.427 158.742 223.58 141.382 223.58C122.342 223.58 108.529 221.62 99.942 217.7C91.3554 213.687 87.062 207.247 87.062 198.38C87.062 185.78 92.2887 176.493 102.742 170.52C113.195 164.547 126.775 161.56 143.482 161.56C153.189 161.56 163.129 162.82 173.302 165.34C183.569 167.767 192.809 171.127 201.022 175.42C198.315 181.58 195.469 189.093 192.482 197.96C191.922 199.827 191.455 201.227 191.082 202.16C186.322 198.333 179.135 195.16 169.522 192.64C159.909 190.027 151.415 188.72 144.042 188.72C135.175 188.72 129.202 189.327 126.122 190.54C123.042 191.66 121.502 193.34 121.502 195.58C121.502 197.82 123.602 199.64 127.802 201.04C132.095 202.347 138.255 203 146.282 203C166.069 203 180.442 205.287 189.402 209.86C198.362 214.34 202.842 221.247 202.842 230.58C202.842 243.647 198.082 253.073 188.562 258.86C179.042 264.553 164.622 267.4 145.302 267.4C134.942 267.4 124.395 266.28 113.662 264.04C102.929 261.707 93.2687 258.347 84.682 253.96ZM328.673 193.76C314.019 193.293 299.786 193.013 285.973 192.92V266H250.973L250.973 192.92C237.066 193.013 222.879 193.293 208.413 193.76V164.36L328.673 164.36V193.76ZM393.896 267.4C372.523 267.4 356.796 262.78 346.716 253.54C336.636 244.207 331.596 231.14 331.596 214.34C331.596 197.727 336.589 184.753 346.576 175.42C356.656 166.087 372.429 161.42 393.896 161.42C415.456 161.42 431.229 166.087 441.216 175.42C451.296 184.753 456.336 197.727 456.336 214.34C456.336 231.233 451.343 244.3 441.356 253.54C431.369 262.78 415.549 267.4 393.896 267.4ZM393.896 238.84C404.256 238.84 411.723 236.88 416.296 232.96C420.869 228.947 423.156 222.74 423.156 214.34C423.156 206.127 420.869 200.013 416.296 196C411.723 191.987 404.256 189.98 393.896 189.98C383.629 189.98 376.209 191.987 371.636 196C367.063 200.013 364.776 206.127 364.776 214.34C364.776 222.647 367.063 228.807 371.636 232.82C376.209 236.833 383.629 238.84 393.896 238.84ZM579.915 198.24C579.915 206.36 577.908 213.22 573.895 218.82C569.975 224.42 563.208 228.48 553.595 231C554.715 232.493 555.508 233.66 555.975 234.5L578.655 266H540.575C536.468 258.347 529.981 247.52 521.115 233.52H500.535V266H467.495C468.241 247.893 468.615 230.953 468.615 215.18C468.615 199.407 468.241 182.467 467.495 164.36H500.535V164.5H529.235C548.088 164.5 561.248 167.533 568.715 173.6C576.181 179.667 579.915 187.88 579.915 198.24ZM500.535 191.38V207.34H519.435C527.368 207.34 533.341 207.107 537.355 206.64C541.461 206.08 544.308 205.24 545.895 204.12C547.481 203 548.275 201.367 548.275 199.22C548.275 197.167 547.528 195.58 546.035 194.46C544.541 193.34 541.741 192.547 537.635 192.08C533.528 191.613 527.461 191.38 519.435 191.38H500.535ZM624.128 240.38C659.595 240.193 685.308 239.68 701.268 238.84C700.615 242.667 700.195 246.633 700.008 250.74C699.915 254.753 699.868 259.84 699.868 266H591.088C591.835 247.893 592.208 230.953 592.208 215.18C592.208 199.407 591.835 182.467 591.088 164.36L699.868 164.36V189.7H624.128V203.14C628.608 203.233 635.235 203.28 644.008 203.28C658.848 203.28 674.202 203 690.068 202.44V226.52C674.202 225.96 658.848 225.68 644.008 225.68C635.235 225.68 628.608 225.727 624.128 225.82V240.38ZM725.935 267.4C721.828 267.4 718.328 265.953 715.435 263.06C712.541 260.073 711.095 256.527 711.095 252.42C711.095 248.313 712.541 244.813 715.435 241.92C718.328 239.027 721.828 237.58 725.935 237.58C729.948 237.58 733.401 239.073 736.295 242.06C739.281 244.953 740.775 248.407 740.775 252.42C740.775 256.527 739.281 260.073 736.295 263.06C733.401 265.953 729.948 267.4 725.935 267.4Z" fill="white" fill-opacity="0.9"/>
</svg>
