<svg width="27" height="26" viewBox="0 0 27 26" fill="none" xmlns="http://www.w3.org/2000/svg">
<g clip-path="url(#clip0_2001_1657)">
<path d="M13.5 24.6563C10.8197 24.6563 8.89091 24.655 7.38712 24.515C5.90057 24.3766 4.94962 24.1108 4.19072 23.653C3.32334 23.1298 2.5899 22.4258 2.04489 21.5932C1.56818 20.8646 1.2911 19.9517 1.14716 18.5246C1.00133 17.081 1 15.2293 1 12.6563C1 10.0832 1.00133 8.23152 1.14716 6.78789C1.2911 5.3608 1.56818 4.44789 2.04489 3.71934C2.58988 2.88664 3.32332 2.18254 4.19072 1.65934C4.94962 1.2017 5.90057 0.935705 7.38712 0.797523C8.89072 0.657523 10.8195 0.65625 13.5 0.65625C16.1803 0.65625 18.1091 0.657523 19.6129 0.797523C21.0994 0.935705 22.0504 1.2017 22.8093 1.65934C23.6766 2.18256 24.41 2.88666 24.9549 3.71934C25.4318 4.44789 25.7087 5.3608 25.8528 6.78789C25.9987 8.23152 26 10.0832 26 12.6563C26 15.2293 25.9987 17.081 25.8528 18.5246C25.7087 19.9517 25.4318 20.8646 24.9549 21.5932C24.41 22.4258 23.6766 23.1298 22.8093 23.653C22.0504 24.1108 21.0994 24.3766 19.6129 24.515C18.1091 24.655 16.1803 24.6563 13.5 24.6563Z" stroke="white"/>
<path d="M13.5 17.6562C16.5376 17.6562 19 15.1938 19 12.1562C19 9.11868 16.5376 6.65625 13.5 6.65625C10.4624 6.65625 8 9.11868 8 12.1562C8 15.1938 10.4624 17.6562 13.5 17.6562Z" stroke="white"/>
<path d="M20.5 6.65625C21.3284 6.65625 22 5.98468 22 5.15625C22 4.32782 21.3284 3.65625 20.5 3.65625C19.6716 3.65625 19 4.32782 19 5.15625C19 5.98468 19.6716 6.65625 20.5 6.65625Z" fill="white"/>
</g>
<defs>
<clipPath id="clip0_2001_1657">
<rect width="27" height="26" fill="white"/>
</clipPath>
</defs>
</svg>
