<svg width="1484" height="369" viewBox="0 0 1484 369" fill="none" xmlns="http://www.w3.org/2000/svg">
<g clip-path="url(#clip0_315_3866)">
<path d="M1138.42 160L1039.24 160V423.571H1138.42V355.801L1195.12 312.849L1281.94 423.571H1396.9L1267.25 258.213L1396.9 160L1274.42 160L1138.42 263.023V160Z" fill="#1F1F1F"/>
<path d="M758.727 423.571H659.545V160L877.928 160C950.485 160 1009.3 219.003 1009.3 291.786C1009.3 364.569 950.485 423.571 877.928 423.571L758.727 423.571ZM758.727 355.801H846.307C881.551 355.801 910.123 327.14 910.123 291.786C910.123 256.431 881.551 227.771 846.307 227.771L758.727 227.771V355.801Z" fill="#1F1F1F"/>
<path d="M451.886 355.801L629.593 355.801V423.571L320.025 423.571V355.801L497.732 227.771L320.025 227.771V160L629.593 160V227.771L451.886 355.801Z" fill="#1F1F1F"/>
<path d="M75.1818 423.571H-24L-24 160L207.819 160C259.473 160 301.346 202.004 301.346 253.819C301.346 305.634 259.473 347.638 207.819 347.638H75.1818L75.1818 423.571ZM75.1818 279.867H176.197C190.539 279.867 202.164 268.205 202.164 253.819C202.164 239.433 190.539 227.771 176.197 227.771L75.1818 227.771V279.867Z" fill="#1F1F1F"/>
</g>
<defs>
<clipPath id="clip0_315_3866">
<rect width="1526" height="369" fill="white" transform="translate(-42)"/>
</clipPath>
</defs>
</svg>
