<svg width="201" height="38" viewBox="0 0 201 38" fill="none" xmlns="http://www.w3.org/2000/svg">
<path d="M164.177 0H150.203V37.1429H164.177V27.5925L172.166 21.5396L184.397 37.1429H200.594L182.327 13.8403L200.594 0H183.338L164.177 14.5181V0Z" fill="white"/>
<path d="M110.681 37.1429H96.707V0H127.475C137.698 0 145.985 8.31473 145.985 18.5714C145.985 28.8281 137.698 37.1429 127.475 37.1429H110.681ZM110.681 27.5925H123.02C127.986 27.5925 132.011 23.5536 132.011 18.5714C132.011 13.5892 127.986 9.55036 123.02 9.55036H110.681V27.5925Z" fill="white"/>
<path d="M67.4491 27.5925H92.4864V37.1429H48.8711V27.5925L73.9085 9.55036H48.8711V0H92.4864V9.55036L67.4491 27.5925Z" fill="white"/>
<path d="M14.3762 37.1429H0.402344V0H33.0636C40.3412 0 46.2408 5.91927 46.2408 13.2211C46.2408 20.5229 40.3412 26.4421 33.0636 26.4421H14.3762V37.1429ZM14.3762 16.8918H28.6084C30.629 16.8918 32.2669 15.2484 32.2669 13.2211C32.2669 11.1938 30.629 9.55036 28.6084 9.55036H14.3762V16.8918Z" fill="white"/>
</svg>
